<svg width="348" height="348" viewBox="0 0 348 348" fill="none" xmlns="http://www.w3.org/2000/svg">
<path d="M173.818 0C269.816 0 347.637 77.8211 347.637 173.818C347.637 269.816 269.816 347.637 173.818 347.637C77.8212 347.637 1.09902e-07 269.816 0 173.818C8.13673e-06 77.8212 77.8212 0.000116259 173.818 0ZM209.245 66.4277C175.276 66.4278 144.991 82.2006 125.312 106.821C151.67 116.569 170.496 142.27 170.496 172.445C170.496 203.195 150.947 229.302 123.799 238.611C110.031 220.25 101.855 197.319 101.854 172.445C101.855 148.469 109.452 126.298 122.331 108.284C115.864 106.266 108.986 105.177 101.854 105.177C63.9448 105.177 33.2129 135.909 33.2129 173.818C33.2129 211.728 63.9448 242.46 101.854 242.46C109.528 242.46 116.908 241.2 123.798 238.877C143.417 264.606 174.392 281.209 209.245 281.209C268.556 281.209 316.637 233.129 316.637 173.818C316.637 114.508 268.555 66.4277 209.245 66.4277Z" fill="#166AEA"/>
</svg>
