<svg width="345" height="349" viewBox="0 0 345 349" fill="none" xmlns="http://www.w3.org/2000/svg">
<path d="M65.6768 250.689C94.9596 264.277 131.916 272.385 172.088 272.385C210.288 272.385 245.581 265.052 274.133 252.648C269.679 306.269 224.75 348.399 169.979 348.399C114.542 348.399 69.1852 305.24 65.6768 250.689ZM273.363 89.0811C316.284 107.511 344.176 137.353 344.176 171.032C344.176 204.509 316.617 234.193 274.133 252.648C274.373 249.757 274.498 246.832 274.498 243.879C274.498 217.109 264.432 192.691 247.881 174.199C228.743 195.581 200.933 209.039 169.979 209.039C139.024 209.039 111.212 195.582 92.0742 174.199C75.5234 192.691 65.4581 217.109 65.458 243.879C65.458 246.167 65.532 248.438 65.6768 250.689C25.6801 232.131 1.61694e-05 203.348 0 171.032C0 138.545 25.9532 109.628 66.3145 91.0801C65.7496 95.4801 65.458 99.9658 65.458 104.52C65.458 131.289 75.5235 155.708 92.0742 174.199C111.212 152.817 139.024 139.359 169.979 139.359C200.933 139.359 228.743 152.817 247.881 174.199C264.432 155.708 274.498 131.29 274.498 104.52C274.498 99.274 274.109 94.1191 273.363 89.0811ZM169.979 0C222.457 0.000206173 265.901 38.6772 273.363 89.0811C244.948 76.8796 209.946 69.6797 172.088 69.6797C132.207 69.6797 95.4952 77.6701 66.3145 91.0801C72.9095 39.7032 116.808 0 169.979 0Z" fill="#166AEA"/>
</svg>
