<svg width="285" height="285" viewBox="0 0 285 285" fill="none" xmlns="http://www.w3.org/2000/svg">
<path d="M284.53 29.584C273.324 31.5597 262.339 34.7535 251.775 39.1289C232.767 47.0025 215.495 58.5433 200.946 73.0918C190.845 83.1933 182.195 94.6088 175.214 107.006C189.451 93.1393 206.201 82.1034 224.573 74.4932C243.582 66.6195 263.955 62.5665 284.53 62.5664V92.1504C273.324 94.1261 262.339 97.3199 251.775 101.695C232.767 109.569 215.495 121.11 200.946 135.658C189.268 147.336 179.53 160.769 172.068 175.446C172.623 174.875 173.181 174.307 173.744 173.743C188.293 159.195 205.565 147.654 224.573 139.78C243.582 131.907 263.955 127.854 284.53 127.854V157.438C273.324 159.413 262.339 162.607 251.775 166.982C232.767 174.856 215.495 186.397 200.946 200.945C186.398 215.494 174.856 232.767 166.982 251.775C162.607 262.338 159.413 273.323 157.438 284.529H127.092C125.116 273.323 121.922 262.338 117.547 251.775C109.673 232.767 98.1327 215.494 83.584 200.945C69.0353 186.397 51.7627 174.856 32.7539 166.982C22.1909 162.607 11.2062 159.413 0 157.438V127.854C20.5749 127.854 40.9483 131.907 59.957 139.78C78.9659 147.654 96.2384 159.194 110.787 173.743C111.349 174.305 111.904 174.873 112.457 175.442C104.996 160.767 95.2605 147.335 83.584 135.658C69.0353 121.11 51.7626 109.569 32.7539 101.695C22.191 97.3201 11.2061 94.1261 0 92.1504V62.5664C20.5749 62.5664 40.9483 66.6195 59.957 74.4932C78.3285 82.1029 95.0781 93.1378 109.314 107.003C102.334 94.6069 93.6847 83.1925 83.584 73.0918C69.0353 58.5432 51.7627 47.0026 32.7539 39.1289C22.191 34.7536 11.2062 31.5597 0 29.584V0C20.5749 8.01464e-06 40.9483 4.05312 59.957 11.9268C78.9658 19.8005 96.2384 31.341 110.787 45.8896C123.874 58.9766 134.525 74.2679 142.265 91.0439C150.004 74.2677 160.657 58.9768 173.744 45.8896C188.293 31.341 205.565 19.8005 224.573 11.9268C243.582 4.0531 263.955 5.41008e-05 284.53 0V29.584Z" fill="#166AEA"/>
</svg>
