<svg width="301" height="285" viewBox="0 0 301 285" fill="none" xmlns="http://www.w3.org/2000/svg">
<path d="M0 153.696V76.1679C59.8462 69.6392 74.8078 22.669 74.8078 0H150.976C149.888 117.516 49.8718 151.429 0 153.696Z" fill="#166AEA"/>
<path d="M0 284.269V206.741C59.8462 200.213 74.8078 153.243 74.8078 130.573H150.976C149.888 248.09 49.8718 282.003 0 284.269Z" fill="#166AEA"/>
<path d="M300.59 153.696V76.1679C240.744 69.6392 225.782 22.669 225.782 0H149.614C150.702 117.516 250.718 151.429 300.59 153.696Z" fill="#166AEA"/>
<path d="M300.59 284.269V206.741C240.744 200.213 225.782 153.243 225.782 130.573H149.614C150.702 248.09 250.718 282.003 300.59 284.269Z" fill="#166AEA"/>
</svg>
