<svg width="349" height="355" viewBox="0 0 349 355" fill="none" xmlns="http://www.w3.org/2000/svg">
<path d="M68.9824 0C81.7734 2.62303e-06 93.7506 8.9523 104.02 24.5527C83.7028 55.4183 70.0762 112.309 70.0762 177.383C70.0762 242.457 83.703 299.346 104.02 330.212C93.7505 345.813 81.7736 354.766 68.9824 354.766C30.8846 354.766 4.6368e-06 275.349 0 177.383C0 79.4169 30.8846 0 68.9824 0ZM139.059 0C151.85 9.96791e-05 163.828 8.95344 174.098 24.5557C153.782 55.4219 140.156 112.31 140.156 177.383C140.156 242.455 153.782 299.343 174.098 330.209C163.828 345.812 151.85 354.766 139.059 354.766C126.267 354.766 114.289 345.813 104.02 330.212C124.336 299.346 137.965 242.457 137.965 177.383C137.965 112.308 124.337 55.4181 104.02 24.5527C114.289 8.95181 126.267 0 139.059 0ZM209.138 0C221.929 0 233.907 8.95212 244.176 24.5527C223.859 55.4182 210.231 112.308 210.231 177.383C210.231 242.457 223.859 299.346 244.176 330.212C233.907 345.813 221.929 354.766 209.138 354.766C196.346 354.765 184.367 345.812 174.098 330.209C194.413 299.343 208.041 242.455 208.041 177.383C208.041 112.31 194.414 55.4217 174.098 24.5557C184.367 8.95318 196.346 0.00016022 209.138 0ZM279.214 0C317.312 0 348.196 79.4169 348.196 177.383C348.196 275.349 317.312 354.766 279.214 354.766C266.423 354.766 254.445 345.813 244.176 330.212C264.492 299.346 278.12 242.457 278.12 177.383C278.12 112.308 264.493 55.4182 244.176 24.5527C254.445 8.95204 266.423 6.05242e-05 279.214 0Z" fill="#166AEA"/>
</svg>
