<svg width="294" height="294" viewBox="0 0 294 294" fill="none" xmlns="http://www.w3.org/2000/svg">
<path d="M220.43 220.343C220.441 229.988 218.553 239.542 214.872 248.457C211.192 257.372 205.791 265.476 198.979 272.304C192.167 279.132 184.077 284.551 175.17 288.253C166.263 291.955 156.715 293.867 147.069 293.878C137.424 293.889 127.871 292.001 118.956 288.32C110.041 284.64 101.937 279.239 95.1084 272.427C88.2801 265.615 82.8608 257.524 79.1592 248.617C75.4576 239.711 73.5466 230.162 73.5352 220.517L220.43 220.343ZM73.4473 220.343C63.8022 220.343 54.2517 218.443 45.3408 214.752C36.4297 211.061 28.3329 205.65 21.5127 198.83C14.6925 192.01 9.2819 183.913 5.59082 175.002C1.89988 166.091 3.60645e-05 156.541 0 146.896C-4.21608e-07 137.25 1.89974 127.699 5.59082 118.788C9.28191 109.877 14.6925 101.78 21.5127 94.96C28.3329 88.1398 36.4298 82.7292 45.3408 79.0381C54.2517 75.3472 63.8023 73.4473 73.4473 73.4473V220.343ZM220.343 73.4473C229.988 73.4473 239.539 75.347 248.45 79.0381C257.361 82.7292 265.458 88.1397 272.278 94.96C279.098 101.78 284.508 109.877 288.199 118.788C291.89 127.699 293.79 137.25 293.79 146.896C293.79 156.541 291.89 166.091 288.199 175.002C284.508 183.913 279.098 192.01 272.278 198.83C265.458 205.65 257.361 211.061 248.45 214.752C239.539 218.443 229.988 220.343 220.343 220.343V73.4473ZM146.872 2.87323e-05C156.517 0.0086086 166.066 1.91646 174.974 5.61526C183.881 9.31423 191.974 14.7324 198.788 21.5586C205.602 28.3848 211.005 36.4862 214.688 45.4004C218.372 54.3147 220.262 63.8675 220.254 73.5127L146.807 73.4473L73.3594 73.3828C73.3679 63.7376 75.2756 54.1881 78.9746 45.2803C82.6735 36.3727 88.0909 28.2809 94.917 21.4668C101.743 14.6526 109.845 9.24964 118.76 5.56643C127.674 1.88323 137.227 -0.0085033 146.872 2.87323e-05Z" fill="#166AEA"/>
<path d="M220.342 3.05176e-05C229.987 3.05176e-05 239.538 1.89981 248.449 5.5909C257.36 9.28199 265.457 14.6921 272.277 21.5123C279.098 28.3326 284.508 36.4294 288.199 45.3405C291.89 54.2515 293.79 63.8024 293.79 73.4477L220.342 73.4476L220.342 3.05176e-05Z" fill="#166AEA"/>
<path d="M73.4469 3.05176e-05C63.8016 3.05176e-05 54.2508 1.89981 45.3397 5.5909C36.4287 9.28199 28.3318 14.6921 21.5116 21.5123C14.6914 28.3326 9.28125 36.4294 5.59016 45.3405C1.89908 54.2515 -0.000702326 63.8024 -0.000701904 73.4477L73.4469 73.4476L73.4469 3.05176e-05Z" fill="#166AEA"/>
<path d="M220.342 293.79C229.987 293.79 239.538 291.891 248.449 288.2C257.36 284.509 265.457 279.098 272.277 272.278C279.098 265.458 284.508 257.361 288.199 248.45C291.89 239.539 293.79 229.988 293.79 220.343L220.342 220.343L220.342 293.79Z" fill="#166AEA"/>
<path d="M73.4469 293.79C63.8016 293.79 54.2508 291.891 45.3397 288.2C36.4287 284.509 28.3318 279.098 21.5116 272.278C14.6914 265.458 9.28125 257.361 5.59016 248.45C1.89908 239.539 -0.000702326 229.988 -0.000701904 220.343L73.4469 220.343L73.4469 293.79Z" fill="#166AEA"/>
<circle cx="146.897" cy="146.895" r="73.4476" fill="#166AEA"/>
</svg>
