<svg width="376" height="293" viewBox="0 0 376 293" fill="none" xmlns="http://www.w3.org/2000/svg">
<path d="M26.4728 180.26C58.5437 202.196 118.1 217.585 186.515 218.8C254.93 220.015 314.995 206.751 347.825 185.968C364.036 197.056 373.225 209.816 372.986 223.264C372.275 263.318 288.203 294.305 185.207 292.476C82.2114 290.647 -0.70741 256.693 0.00397174 216.639C0.242954 203.191 9.87888 190.765 26.4728 180.26ZM27.7818 106.585C59.853 128.521 119.409 143.91 187.823 145.125C256.238 146.341 316.303 133.075 349.133 112.292C365.344 123.38 374.534 136.14 374.295 149.588C374.056 163.037 364.42 175.463 347.825 185.968C315.754 164.032 256.198 148.643 187.784 147.428C119.369 146.212 59.3026 159.477 26.4728 180.26C10.2628 169.173 1.07434 156.412 1.31298 142.965C1.55183 129.517 11.1879 117.09 27.7818 106.585ZM2.62101 69.2889C3.33239 29.2349 87.4038 -1.7523 190.4 0.076913C293.396 1.90618 376.314 35.8595 375.602 75.9135C375.363 89.3615 365.727 101.787 349.133 112.292C317.062 90.3563 257.506 74.9678 189.092 73.7527C120.677 72.5377 60.6116 85.8018 27.7818 106.585C11.571 95.4975 2.38225 82.737 2.62101 69.2889Z" fill="#166AEA"/>
</svg>
